<?xml version="1.0" encoding="iso-8859-1"?>
<!-- Generator: Adobe Illustrator 19.0.0, SVG Export Plug-In . SVG Version: 6.00 Build 0)  -->
<svg xmlns="http://www.w3.org/2000/svg" xmlns:xlink="http://www.w3.org/1999/xlink" version="1.1" id="Capa_1" x="0px" y="0px" viewBox="0 0 512.002 512.002" style="enable-background:new 0 0 512.002 512.002;" xml:space="preserve" width="512px" height="512px">
<g>
	<g>
		<path d="M167.945,279.491c-9.344-12.043-14.283-26.49-14.283-41.782c0-5.523-4.478-10-10-10c-5.523,0-10,4.477-10,10    c0,19.772,6.391,38.461,18.482,54.043c1.971,2.54,4.923,3.87,7.907,3.87c2.143,0,4.301-0.686,6.124-2.1    C170.538,290.136,171.33,283.854,167.945,279.491z" fill="#FFDA44"/>
	</g>
</g>
<g>
	<g>
		<path d="M187.196,296.466l-0.278-0.165c-4.744-2.831-10.883-1.277-13.711,3.465c-2.83,4.743-1.278,10.882,3.465,13.711l0.39,0.232    c1.592,0.935,3.336,1.381,5.058,1.381c3.429,0,6.768-1.766,8.631-4.935C193.549,305.392,191.956,299.264,187.196,296.466z" fill="#FFDA44"/>
	</g>
</g>
<g>
	<g>
		<path d="M387.243,27.098C369.768,9.624,346.535,0,321.823,0c-24.713,0-47.945,9.624-65.42,27.098    c-3.905,3.905-3.905,10.237,0,14.143l41.277,41.277H171.104l-3.447-23.283c10.137-5.195,17.095-15.747,17.095-27.898    C184.75,14.058,170.693,0,153.415,0c-17.278,0-31.336,14.058-31.336,31.336c0,15.386,11.15,28.209,25.793,30.835l3.013,20.347    h-28.967c-2.829,0-5.525,1.198-7.422,3.298c-1.896,2.1-2.813,4.903-2.526,7.718l7.537,73.815    c-14.305,20.751-21.845,44.993-21.845,70.36c0,59.928,42.661,110.079,99.208,121.681v71.362c0,27.956-49.642,37-73.682,37    c-5.522,0-10,4.478-10,10v24.25c0,5.523,4.478,10,10,10h197.363c5.522,0,10-4.477,10-10v-24.25c0-5.522-4.478-10-10-10    c-24.04,0-73.681-9.044-73.681-37v-71.363c56.547-11.602,99.207-61.753,99.207-121.68c0-25.366-7.54-49.607-21.844-70.359    l5.399-52.879l43.467,43.467c1.876,1.875,4.419,2.929,7.071,2.929c2.652,0,5.195-1.054,7.071-2.929    c17.474-17.475,27.098-40.707,27.098-65.42C414.34,67.805,404.716,44.572,387.243,27.098z M278.097,34.649    c9.882-7.5,21.436-12.269,33.726-13.955v47.681L278.097,34.649z M142.079,31.336c0-6.251,5.085-11.336,11.336-11.336    c6.251,0,11.336,5.085,11.336,11.336s-5.085,11.336-11.336,11.336C147.163,42.672,142.079,37.587,142.079,31.336z M310.75,102.518    l-3.609,35.354c-21.892,3.465-54.027-1.032-85.207-5.398c-32.133-4.498-62.733-8.777-86.471-5.754l-2.472-24.202H310.75z     M310.551,487.412v4.589H133.188v-4.589c36.814-2.447,83.682-18.412,83.682-56.661v-68.935c0.161,0.007,0.322,0.004,0.483,0.01    c1.478,0.053,2.96,0.089,4.451,0.09c0.043,0,0.086,0,0.13,0c1.491-0.001,2.974-0.036,4.451-0.09    c0.162-0.006,0.323-0.003,0.485-0.01v68.935C226.87,469,273.736,484.965,310.551,487.412z M326.078,237.709    c0,52.881-39.595,96.687-90.695,103.333c-1.047,0.136-2.096,0.257-3.148,0.36c-0.104,0.011-0.209,0.019-0.314,0.028    c-0.969,0.093-1.939,0.172-2.911,0.237c-0.197,0.013-0.395,0.025-0.592,0.037c-0.953,0.06-1.907,0.107-2.862,0.14    c-0.122,0.004-0.244,0.01-0.366,0.014c-2.212,0.069-4.426,0.069-6.638,0c-0.12-0.004-0.24-0.01-0.361-0.014    c-0.957-0.033-1.914-0.08-2.869-0.14c-0.195-0.012-0.39-0.024-0.584-0.037c-0.978-0.066-1.953-0.146-2.927-0.238    c-0.1-0.01-0.2-0.017-0.3-0.026c-1.055-0.104-2.107-0.227-3.157-0.362c-51.098-6.647-90.69-50.452-90.69-103.332    c0-22.386,6.995-43.722,20.229-61.701c1.472-1.999,2.146-4.474,1.895-6.943l-2.292-22.442c21.211-2.807,51.883,1.487,81.666,5.657    c24.009,3.361,48.55,6.799,69.824,6.798c5.607,0,10.986-0.242,16.07-0.784l-1.1,10.773c-0.252,2.469,0.423,4.944,1.895,6.943    C319.082,193.989,326.078,215.324,326.078,237.709z M393.645,82.518h-47.68l33.715-33.715    C387.178,58.684,391.96,70.229,393.645,82.518z M331.823,20.695c12.289,1.685,23.834,6.467,33.715,13.965l-33.715,33.715V20.695z     M379.691,136.243l-33.726-33.726h47.681C391.96,114.808,387.191,126.361,379.691,136.243z" fill="#FFDA44"/>
	</g>
</g>
<g>
	<g>
		<path d="M202.279,171.318c-16.542,0-30,13.458-30,30c0,16.543,13.458,30.001,30,30.001c16.542,0,30-13.458,30-30.001    C232.279,184.776,218.821,171.318,202.279,171.318z M202.279,211.319c-5.514,0-10-4.486-10-10.001c0-5.514,4.486-10,10-10    c5.514,0,10,4.486,10,10C212.279,206.833,207.792,211.319,202.279,211.319z" fill="#FFDA44"/>
	</g>
</g>
<g>
	<g>
		<path d="M255.411,242.664c-16.542,0-30,13.458-30,30s13.458,30,30,30c16.543,0,30.001-13.458,30.001-30    S271.953,242.664,255.411,242.664z M255.411,282.664c-5.514,0-10-4.486-10-10c0-5.514,4.486-10,10-10    c5.515,0,10.001,4.486,10.001,10C265.412,278.178,260.925,282.664,255.411,282.664z" fill="#FFDA44"/>
	</g>
</g>
<g>
</g>
<g>
</g>
<g>
</g>
<g>
</g>
<g>
</g>
<g>
</g>
<g>
</g>
<g>
</g>
<g>
</g>
<g>
</g>
<g>
</g>
<g>
</g>
<g>
</g>
<g>
</g>
<g>
</g>
</svg>
