<?xml version="1.0" encoding="iso-8859-1"?>
<!-- Generator: Adobe Illustrator 19.0.0, SVG Export Plug-In . SVG Version: 6.00 Build 0)  -->
<svg xmlns="http://www.w3.org/2000/svg" xmlns:xlink="http://www.w3.org/1999/xlink" version="1.1" id="Capa_1" x="0px" y="0px" viewBox="0 0 512.002 512.002" style="enable-background:new 0 0 512.002 512.002;" xml:space="preserve" width="512px" height="512px">
<g>
	<g>
		<path d="M495.438,85.623c-1.087-4.19-5.362-6.707-9.56-5.619c-4.191,1.088-6.707,5.369-5.62,9.561    c6.022,23.195,4.706,47.349-3.803,69.851c-12.057,31.879-37.415,56.701-69.573,68.1c-3.084,1.093-6.215,2.055-9.378,2.883    c3.014-5.972,5.634-12.137,7.842-18.456c26.422-10.421,47.183-31.406,57.265-58.063c18.713-49.478-4.239-104.669-51.35-126.779    l2.818-7.45c0.625-1.651,1.932-2.956,3.585-3.582c0.933-0.352,2.801-0.786,4.82,0.282c20.004,10.574,36.339,26.697,47.239,46.625    c2.078,3.798,6.843,5.196,10.642,3.117c3.8-2.078,5.195-6.843,3.117-10.643c-12.38-22.634-30.939-40.949-53.669-52.964    c-5.451-2.882-11.903-3.277-17.696-1.087c-5.861,2.216-10.492,6.846-12.707,12.704l-2.71,7.166l-45.848,121.228H146.863    l-13.168-32.063l35.843-15.876c0.001,0,0.002-0.001,0.002-0.001l61.139-27.08c4.376-1.938,7.041-6.444,6.632-11.213    c-0.409-4.768-3.803-8.754-8.445-9.917L90.011,11.529c-3.434-0.861-7.152,0.789-8.822,3.908L13.667,141.665    c-2.258,4.22-1.586,9.412,1.67,12.919c2.169,2.336,5.167,3.584,8.222,3.584c1.531,0,3.075-0.314,4.536-0.961l61.135-27.079    c0.002-0.001,0.004-0.001,0.006-0.002l30.114-13.338l10.558,25.709H118.92c-5.879,0-10.663,4.783-10.663,10.663v8.393    c0,11.733,1.333,23.16,3.848,34.141c0.059,0.338,0.133,0.671,0.234,0.992c14.273,60.435,64.524,107.118,126.806,116.11v72.701    c0,4.331,3.51,7.842,7.842,7.842c4.331,0,7.842-3.51,7.842-7.842v-71.12h12.665v138.227c0,22.926,17.677,41.801,40.12,43.714    h-92.902c22.44-1.912,40.118-20.787,40.118-43.714V416.99c0-4.331-3.51-7.842-7.842-7.842c-4.331,0-7.842,3.51-7.842,7.842v35.614    c0,15.544-12.647,28.19-28.191,28.19h-0.159c-8.604,0-15.604,6.999-15.604,15.604c0,8.604,6.999,15.604,15.604,15.604h100.573    c8.604,0,15.604-6.999,15.604-15.604c0-8.604-6.999-15.604-15.604-15.604c-15.544,0-28.191-12.646-28.191-28.19v-139.85    c18.349-2.676,36.127-8.646,52.31-17.683c3.782-2.112,5.135-6.888,3.023-10.669c-2.111-3.782-6.886-5.135-10.669-3.023    c-20.287,11.328-43.372,17.316-66.76,17.316c-61.483,0-113.644-40.668-130.999-96.517h29.566c0.009,0,0.018,0.002,0.028,0.002    c0.014,0,0.028-0.002,0.042-0.002H390.36h1.699c-7.47,24.076-21.513,45.901-40.941,62.824c-3.265,2.845-3.606,7.798-0.762,11.064    c2.845,3.264,7.798,3.605,11.064,0.762c9.67-8.424,18.135-17.942,25.294-28.281c8.635-1.231,17.165-3.327,25.407-6.249    c36.515-12.944,65.309-41.131,79.001-77.334C500.786,139.411,502.279,111.976,495.438,85.623z M78.319,117.809l-44.695,19.797    l45.997-85.989L78.319,117.809z M405.696,41.823c39.024,19.006,57.898,65.126,42.248,106.509    c-7.02,18.56-20.186,33.844-37.094,43.577c2.009-9.911,3.058-20.072,3.058-30.356v-9.189c0-5.44-4.426-9.866-9.866-9.866H367.62    L405.696,41.823z M212.449,58.4l-44.696,19.797l-49.895-43.516L212.449,58.4z M94.144,110.8l1.469-74.711l56.316,49.116    l-3.334,1.477L94.144,110.8z M129.952,186.495h-3.731c-1.493-8.09-2.279-16.425-2.279-24.941v-3.373h12.407l11.628,28.314H129.952    z M390.361,186.493h-225.43v0.001l-11.628-28.314h202.919c0.015,0,0.03,0.002,0.046,0.002c0.009,0,0.018-0.002,0.027-0.002h41.929    v3.372c0,8.434-0.784,16.777-2.294,24.941H390.361z" fill="#FFFFFF"/>
	</g>
</g>
<g>
	<g>
		<circle cx="418.132" cy="72.171" r="7.796" fill="#FFFFFF"/>
	</g>
</g>
<g>
	<g>
		<circle cx="433.732" cy="138.671" r="7.796" fill="#FFFFFF"/>
	</g>
</g>
<g>
	<g>
		<circle cx="396.432" cy="112.621" r="7.796" fill="#FFFFFF"/>
	</g>
</g>
<g>
	<g>
		<circle cx="308.962" cy="242.011" r="7.796" fill="#FFFFFF"/>
	</g>
</g>
<g>
	<g>
		<circle cx="277.242" cy="236.781" r="7.796" fill="#FFFFFF"/>
	</g>
</g>
<g>
	<g>
		<circle cx="287.352" cy="264.051" r="7.796" fill="#FFFFFF"/>
	</g>
</g>
<g>
</g>
<g>
</g>
<g>
</g>
<g>
</g>
<g>
</g>
<g>
</g>
<g>
</g>
<g>
</g>
<g>
</g>
<g>
</g>
<g>
</g>
<g>
</g>
<g>
</g>
<g>
</g>
<g>
</g>
</svg>
