<?xml version="1.0" encoding="iso-8859-1"?>
<!-- Generator: Adobe Illustrator 19.0.0, SVG Export Plug-In . SVG Version: 6.00 Build 0)  -->
<svg xmlns="http://www.w3.org/2000/svg" xmlns:xlink="http://www.w3.org/1999/xlink" version="1.1" id="Capa_1" x="0px" y="0px" viewBox="0 0 464 464" style="enable-background:new 0 0 464 464;" xml:space="preserve" width="512px" height="512px">
<g>
	<path d="M348.22,201.994C350.729,211.74,352,221.836,352,232c0,66.168-53.832,120-120,120s-120-53.832-120-120s53.832-120,120-120   c27.545,0,53.448,9.075,74.907,26.245c3.451,2.76,8.485,2.201,11.245-1.249c2.76-3.45,2.201-8.484-1.249-11.245   C292.924,106.566,262.771,96,232,96c-74.991,0-136,61.009-136,136s61.009,136,136,136c74.99,0,136-61.009,136-136   c0-11.508-1.441-22.945-4.284-33.994c-1.102-4.279-5.462-6.854-9.742-5.754C349.695,193.354,347.119,197.715,348.22,201.994z" fill="#f5883b"/>
	<path d="M328.621,147.663c-3.501,2.694-4.156,7.717-1.462,11.219c3.865,5.023,7.354,10.384,10.368,15.936   c1.45,2.67,4.199,4.184,7.037,4.184c1.29,0,2.599-0.313,3.812-0.971c3.882-2.109,5.32-6.965,3.212-10.848   c-3.417-6.292-7.369-12.367-11.747-18.057C337.146,145.624,332.125,144.968,328.621,147.663z" fill="#f5883b"/>
	<path d="M262.987,240H336c4.418,0,8-3.582,8-8s-3.582-8-8-8h-73.013c-1.475-5.71-4.494-10.802-8.578-14.815l36.519-63.252   c2.21-3.826,0.898-8.719-2.928-10.928c-3.826-2.21-8.719-0.898-10.928,2.928l-36.511,63.239C237.834,200.414,234.965,200,232,200   c-2.965,0-5.834,0.414-8.561,1.172l-36.511-63.239c-2.209-3.826-7.102-5.135-10.928-2.928c-3.826,2.209-5.137,7.102-2.928,10.928   l36.519,63.252c-4.084,4.012-7.103,9.105-8.578,14.814H128c-4.418,0-8,3.582-8,8s3.582,8,8,8h73.013   c1.475,5.709,4.494,10.802,8.578,14.814l-36.519,63.252c-2.209,3.826-0.898,8.719,2.928,10.928c1.26,0.728,2.635,1.073,3.993,1.073   c2.765,0,5.454-1.435,6.936-4.001l36.511-63.239c2.727,0.758,5.596,1.172,8.561,1.172c2.965,0,5.834-0.414,8.561-1.172   l36.511,63.239c1.481,2.566,4.17,4.001,6.936,4.001c1.356,0,2.732-0.346,3.992-1.073c3.826-2.209,5.138-7.102,2.928-10.928   l-36.519-63.252C258.493,250.803,261.512,245.71,262.987,240z M216,232c0-8.822,7.178-16,16-16s16,7.178,16,16s-7.178,16-16,16   S216,240.822,216,232z" fill="#f5883b"/>
	<path d="M456,224h-64.2c-2.619-52.93-31.081-99.17-72.998-126.346l32.126-55.644c2.21-3.826,0.898-8.719-2.928-10.928   c-3.826-2.209-8.72-0.898-10.928,2.928l-32.11,55.617C283.072,78.364,258.266,72,232,72c-26.265,0-51.072,6.364-72.961,17.627   l-32.11-55.617c-2.208-3.826-7.102-5.136-10.928-2.928c-3.826,2.209-5.137,7.102-2.928,10.928l32.126,55.644   C103.281,124.831,74.819,171.071,72.2,224H8c-4.418,0-8,3.582-8,8s3.582,8,8,8h64.2c2.619,52.929,31.081,99.169,72.998,126.346   l-32.126,55.644c-2.209,3.826-0.898,8.719,2.928,10.928c1.26,0.728,2.635,1.073,3.993,1.073c2.765,0,5.454-1.435,6.936-4.001   l32.11-55.617C180.928,385.636,205.735,392,232,392c26.266,0,51.072-6.364,72.962-17.627l32.11,55.617   c1.481,2.566,4.17,4.001,6.936,4.001c1.356,0,2.732-0.346,3.992-1.073c3.826-2.209,5.138-7.102,2.928-10.928l-32.126-55.644   C360.719,339.17,389.181,292.93,391.8,240H456c4.418,0,8-3.582,8-8S460.418,224,456,224z M232,376c-79.402,0-144-64.598-144-144   S152.598,88,232,88c79.402,0,144,64.598,144,144S311.402,376,232,376z" fill="#f5883b"/>
</g>
<g>
</g>
<g>
</g>
<g>
</g>
<g>
</g>
<g>
</g>
<g>
</g>
<g>
</g>
<g>
</g>
<g>
</g>
<g>
</g>
<g>
</g>
<g>
</g>
<g>
</g>
<g>
</g>
<g>
</g>
</svg>
